<?xml version="1.0" encoding="utf-8"?><!-- Uploaded to: SVG Repo, www.svgrepo.com, Generator: SVG Repo Mixer Tools -->
<svg fill="#000000" width="800px" height="800px" viewBox="0 0 24 24" id="rope-2" data-name="Flat Line" xmlns="http://www.w3.org/2000/svg" class="icon flat-line"><path id="primary" d="M13,10c0-1.66,3.34-3,5-3a3,3,0,0,1,0,6C16.34,13,13,11.66,13,10Zm-2,0c0-1.66-3.34-3-5-3a3,3,0,0,0,0,6C7.66,13,11,11.66,11,10Zm3-3v6M12,6v8M8,18H8a6.84,6.84,0,0,0,2-4.83V7" style="fill: none; stroke: rgb(0, 0, 0); stroke-linecap: round; stroke-linejoin: round; stroke-width: 2;"></path></svg>